<?xml version="1.0" encoding="utf-8"?>
<!-- Generator: Adobe Illustrator 26.5.3, SVG Export Plug-In . SVG Version: 6.00 Build 0)  -->
<svg version="1.1" id="LOGO" xmlns="http://www.w3.org/2000/svg" xmlns:xlink="http://www.w3.org/1999/xlink" x="0px" y="0px"
	 viewBox="0 0 1372 309" style="enable-background:new 0 0 1372 309;" xml:space="preserve">
<style type="text/css">
	.st0{fill:#FF4539;}
</style>
<g>
	<path class="st0" d="M12,156.2C12,72.9,73.2,9.4,162.1,9.4c58.5,0,102.7,25.5,127,62l-42.8,27.8c-15.7-26.5-44.7-44.1-84.2-44.1
		c-57.8,0-96.3,43.4-96.3,101.1c0,58.1,38.6,101.9,96.3,101.9c47.2,0,81-26.3,89.6-68.5h-92.5v-43.9h151
		c0,93.3-57.2,157.4-148.1,157.4C73.2,303,12,239.5,12,156.2z"/>
	<path class="st0" d="M505.7,15.2h57l114.6,282.1h-53.5L594.4,223H474l-29.4,74.3h-53.3L505.7,15.2z M577.9,178.5L534.3,67.7
		l-43.8,110.7H577.9z"/>
	<path class="st0" d="M787.6,15.2h100.4c69.1,0,101.1,32.2,101.1,80.2c0,40.1-26.1,71-76,77.3l110.3,124.5h-63.1L854.7,175.8h-16.5
		v121.5h-50.7V15.2z M883.7,134.1c34.7,0,51.4-13.2,51.4-38.2c0-24.9-16.7-38.2-51.4-38.2h-45.5v76.4H883.7z"/>
	<path class="st0" d="M1192.1,177.1l-112.3-162h56.6l81.2,119.5l81.2-119.5h56.4l-112.4,162v120.1h-50.7V177.1z"/>
</g>
</svg>
